<svg width="394" height="189" viewBox="0 0 394 189" fill="none" xmlns="http://www.w3.org/2000/svg">
<path d="M5.00063 162.208C5.26532 164.069 8.44956 170.453 12.7367 174.632C13.7368 175.607 15.9249 175.041 17.2764 174.644C21.5736 173.382 23.9617 168.111 26.1153 164.626C28.3393 161.027 30.1217 157.411 32.9289 148.075C34.5102 142.816 35.4795 139.236 36.1452 134.953C36.4736 132.841 36.5463 130.67 36.9473 119.934C37.9903 92.0132 37.0837 76.0889 37.216 80.8973C37.3658 86.338 40.2759 95.3147 42.8185 105.084C46.6119 119.659 51.2403 121.823 53.9072 123.696C55.0951 124.53 56.5741 123.981 57.6529 123.447C61.924 121.336 65.1403 116.778 67.5545 111.833C69.4212 108.01 69.6961 103.937 70.4982 97.4321C73.4654 73.3676 69.9688 67.8676 69.3031 62.7664C69.0264 60.6465 69.1667 67.7473 70.0931 83.3557C71.3887 105.185 76.8987 111.629 78.7876 117.143C79.321 118.88 80.3878 120.757 81.9879 123.419C82.794 125.024 83.588 127.141 85.2082 130.927" stroke="black" stroke-width="10" stroke-linecap="round"/>
<path d="M102.052 77.1877C100.191 77.4524 96.4533 79.0485 92.443 81.4548C88.0535 84.0884 88.4165 88.9301 87.0851 93.3415C84.7247 101.162 88.9459 105.244 91.6128 107.791C92.3708 108.515 93.213 109.255 94.1514 109.664C95.0898 110.073 96.1486 110.073 97.2233 109.543C102.147 107.119 103.913 102.068 105.124 95.9403C108.032 81.2255 103.929 77.2038 103.921 73.7187C103.912 69.7596 105.79 82.2408 107.526 86.9289C108.733 92.6758 109.8 98.555 114.199 109.363C115.15 111.669 115.414 112.463 115.687 113.281" stroke="black" stroke-width="10" stroke-linecap="round"/>
<path d="M121.302 64.3545C120.235 65.1486 119.698 69.4076 120.363 73.5624C121.362 79.7983 122.104 86.2512 123.7 90.6707C126.191 97.5691 126.643 102.036 127.45 104.988C128.44 108.615 125.857 93.8068 125.18 87.7671C124.681 83.3251 123.981 78.5513 123.042 73.8672C121.488 66.1111 124.775 63.2958 125.573 61.427C125.954 60.535 126.9 60.0875 127.839 59.9471C132.106 59.3089 137.311 67.5147 141.743 75.6919C142.685 77.9738 143.487 79.586 144.289 81.4508C144.562 82.5216 144.562 83.845 144.562 85.2085" stroke="black" stroke-width="10" stroke-linecap="round"/>
<path d="M144.562 20.2404C146.423 38.64 149.631 50.4305 151.371 56.7027C155.331 70.9722 158.454 81.1821 160.595 85.0601C161.581 86.8442 163.266 88.6735 165.267 90.5423C166.87 92.0392 169.94 92.4272 174.074 91.7655C180.647 87.6228 183.583 85.2165 185.985 83.8811C187.064 83.3397 187.858 83.075 188.676 82.8023" stroke="black" stroke-width="10" stroke-linecap="round"/>
<path d="M193.489 52.3234C194.018 54.7136 197.74 66.9372 200.166 75.2988C200.699 76.3776 201.493 77.1717 202.299 77.8454C203.105 78.5192 203.899 79.0485 204.718 79.594" stroke="black" stroke-width="10" stroke-linecap="round"/>
<path d="M220.759 73.9794C220.759 71.3245 220.23 64.3866 218.365 56.7709C216.611 49.6081 212.482 44.5833 211.804 43.6369C204.238 33.0714 234.908 60.8735 239.724 63.2757C241.549 64.1857 244.003 64.3545 246.542 63.9575C248.03 57.7133 242.736 36.9395 237.615 27.2104C236.809 25.8709 236.015 24.2828 234.394 22.6465" stroke="black" stroke-width="10" stroke-linecap="round"/>
<path d="M112.479 53.9276C122.272 49.6926 132.066 45.4576 145.316 40.6291C158.566 35.8006 174.977 30.5069 201.032 24.4713C227.087 18.4357 262.291 11.8186 298.56 5.00092" stroke="black" stroke-width="10" stroke-linecap="round"/>
<path d="M176.645 176.645C179.043 178.241 182.243 180.912 187.453 182.921C189.429 183.684 192.398 183.864 196.4 183.334C203.327 182.418 205.504 175.33 207.786 169.984C211.471 161.35 207.14 148.348 202.596 139.645C199.687 134.075 195.381 129.611 193.228 126.126C190.288 123.179 187.617 121.31 184.69 120.107C182.821 119.698 180.174 119.698 177.447 119.698" stroke="black" stroke-width="10" stroke-linecap="round"/>
<path d="M194.291 149.375C190.024 149.11 184.168 148.573 175.073 144.847C169.696 142.644 166.507 137.905 163.687 132.551C161.146 127.724 159.545 124.526 158.334 118.795C156.825 111.657 158.991 105.806 160.856 103.143C166.626 94.9038 174.752 90.5664 179.701 89.3552C185.036 88.0495 196.36 88.4168 204.561 89.3472C210.21 89.9881 216.973 91.8818 221.417 93.887C227.273 96.5297 226.358 109.479 226.911 120.997C227.172 126.431 221.85 130.365 215.971 134.921C210.34 138.41 207.405 139.212 205.002 139.746C203.924 140.014 203.129 140.279 202.311 140.552" stroke="black" stroke-width="10" stroke-linecap="round"/>
<path d="M232.79 146.968C233.857 147.762 234.394 152.551 235.858 156.581C236.45 158.212 237.065 160.058 237.863 161.927C238.604 163.661 241.332 164.077 243.867 164.213C246.227 164.34 248.022 162.481 249.622 161.149C252.834 155.551 254.446 141.177 253.516 134.147C253.115 133.341 252.585 132.547 252.04 131.729" stroke="black" stroke-width="10" stroke-linecap="round"/>
<path d="M241.613 91.6251C243.482 102.301 245.078 108.18 250.813 125.244C253.443 133.071 256.307 136.253 257.783 139.738C259.348 143.434 261.922 146.952 263.662 150.429C264.983 153.068 267.271 155.246 268.342 157.247C268.806 158.113 268.354 158.983 268.218 158.598C266.742 154.431 266.75 149.407 265.679 144.045C265.298 142.135 264.873 137.119 265.138 130.305C265.272 126.843 267.271 125.32 269.136 123.853C271.242 122.195 274.482 122.104 277.285 122.633C281.855 123.496 282.503 130.365 284.648 134.917C286.77 138.899 289.722 144.265 292.26 149.074C293.211 150.971 293.475 151.765 293.748 152.583" stroke="black" stroke-width="10" stroke-linecap="round"/>
<path d="M280.113 66.7607C281.444 76.6343 282.519 83.5723 283.317 90.2656C284.251 98.102 288.117 112.431 290.532 117.544C292.932 122.628 296.138 127.43 300.814 132.246C304.623 136.17 308.707 136.806 311.241 136.678C312.513 136.613 313.511 135.226 314.057 134.151C314.602 133.076 314.602 132.018 314.867 131.075C315.131 130.133 315.661 129.339 316.206 127.719" stroke="black" stroke-width="10" stroke-linecap="round"/>
<path d="M330.644 94.0313C328.245 95.0901 324.516 101.475 321.696 109.243C320.328 113.012 319.414 117.797 319.811 122.605C320.054 125.538 322.879 126.644 324.881 127.578C326.567 128.366 329.817 128.521 333.691 127.33C341.417 124.954 339.194 113.057 339.466 96.4897C339.506 94.085 342.659 103.624 344.407 107.655C346.412 111.132 348.016 114.075 349.083 115.808C349.621 116.746 350.15 117.805 350.695 119.698" stroke="black" stroke-width="10" stroke-linecap="round"/>
<path d="M353.904 91.6251C358.435 103.351 362.711 114.051 366.99 128.597C370.887 141.847 373.683 159.224 375.419 167.658C376.211 171.505 377.156 174.496 378.491 175.703C381.266 178.211 376.394 156.176 373.563 144.057C370.96 132.914 366.737 119.457 365.807 113.438C364.849 107.245 360.617 97.8332 357.132 88.878C355.977 85.9106 358.411 85.4812 360.954 85.3448C366.666 85.0385 373.386 86.0025 379.261 87.735C383.343 88.9386 385.177 92.1464 386.644 95.078C388.285 98.3544 388.393 103.095 388.128 107.635C384.936 113.53 380.116 117.556 378.114 118.222C377.172 118.623 376.378 119.152 373.956 119.698" stroke="black" stroke-width="10" stroke-linecap="round"/>
</svg>
